<mxfile host="65bd71144e">
    <diagram id="mi1murHZLBlOHvkmSOAt" name="Page-1">
        <mxGraphModel dx="1027" dy="692" grid="1" gridSize="10" guides="1" tooltips="1" connect="1" arrows="1" fold="1" page="1" pageScale="1" pageWidth="850" pageHeight="1100" background="#2a2a2a" math="0" shadow="0">
            <root>
                <mxCell id="0"/>
                <mxCell id="1" parent="0"/>
                <mxCell id="cLxIlFLO5tHhSPQvfOKa-5" value="" style="endArrow=classic;html=1;rounded=0;fillColor=#eeeeee;strokeColor=#FFFFFF;fontColor=#F0F0F0;" parent="1" edge="1">
                    <mxGeometry width="50" height="50" relative="1" as="geometry">
                        <mxPoint x="159" y="160" as="sourcePoint"/>
                        <mxPoint x="320" y="160" as="targetPoint"/>
                    </mxGeometry>
                </mxCell>
                <mxCell id="cLxIlFLO5tHhSPQvfOKa-6" value="" style="endArrow=classic;html=1;rounded=0;dashed=1;fillColor=#f9f7ed;strokeColor=#FFFFFF;" parent="1" edge="1">
                    <mxGeometry width="50" height="50" relative="1" as="geometry">
                        <mxPoint x="320" y="280" as="sourcePoint"/>
                        <mxPoint x="160" y="280" as="targetPoint"/>
                    </mxGeometry>
                </mxCell>
                <mxCell id="2" value="" style="group;fillColor=none;" vertex="1" connectable="0" parent="1">
                    <mxGeometry x="120" y="195" width="240" height="49" as="geometry"/>
                </mxCell>
                <mxCell id="cLxIlFLO5tHhSPQvfOKa-1" value="" style="sketch=0;pointerEvents=1;shadow=0;dashed=0;html=1;strokeColor=#666666;fillColor=#f5f5f5;labelPosition=center;verticalLabelPosition=bottom;verticalAlign=top;outlineConnect=0;align=center;shape=mxgraph.office.users.user;gradientColor=#b3b3b3;" parent="2" vertex="1">
                    <mxGeometry y="7" width="32" height="35" as="geometry"/>
                </mxCell>
                <mxCell id="cLxIlFLO5tHhSPQvfOKa-2" value="" style="sketch=0;pointerEvents=1;shadow=0;dashed=0;html=1;strokeColor=#666666;fillColor=#f5f5f5;labelPosition=center;verticalLabelPosition=bottom;verticalAlign=top;outlineConnect=0;align=center;shape=mxgraph.office.servers.server_generic;gradientColor=#b3b3b3;" parent="2" vertex="1">
                    <mxGeometry x="220" y="5" width="20" height="39" as="geometry"/>
                </mxCell>
                <mxCell id="cLxIlFLO5tHhSPQvfOKa-3" value="" style="sketch=0;pointerEvents=1;shadow=0;dashed=0;html=1;strokeColor=#666666;fillColor=#f5f5f5;labelPosition=center;verticalLabelPosition=bottom;verticalAlign=top;outlineConnect=0;align=center;shape=mxgraph.office.concepts.globe_internet;gradientColor=#b3b3b3;" parent="2" vertex="1">
                    <mxGeometry x="99" width="49" height="49" as="geometry"/>
                </mxCell>
                <mxCell id="3" value="Request（要求）" style="text;html=1;resizable=0;autosize=1;align=center;verticalAlign=middle;points=[];fillColor=none;strokeColor=none;rounded=0;fontSize=16;fontColor=#F0F0F0;" vertex="1" parent="1">
                    <mxGeometry x="175" y="130" width="140" height="20" as="geometry"/>
                </mxCell>
                <mxCell id="4" value="Response（応答）" style="text;html=1;resizable=0;autosize=1;align=center;verticalAlign=middle;points=[];fillColor=none;strokeColor=none;rounded=0;fontSize=16;fontColor=#f0f0f0;" vertex="1" parent="1">
                    <mxGeometry x="175" y="290" width="150" height="20" as="geometry"/>
                </mxCell>
            </root>
        </mxGraphModel>
    </diagram>
</mxfile>